<mxfile host="65bd71144e" modified="2021-01-17T15:41:40.504Z" agent="5.0 (X11; Linux x86_64) AppleWebKit/537.36 (KHTML, like Gecko) Code/1.52.1 Chrome/83.0.4103.122 Electron/9.3.5 Safari/537.36" version="13.10.0" etag="pqgoFqxLDjEI5YEolQCQ" type="embed">
    <diagram id="NIJXDlsgM0K00-LySheU" name="Page-1">
        <mxGraphModel dx="820" dy="423" grid="1" gridSize="10" guides="1" tooltips="1" connect="1" arrows="1" fold="1" page="1" pageScale="1" pageWidth="850" pageHeight="1100" background="#F4F1DE" math="0" shadow="0">
            <root>
                <mxCell id="0"/>
                <mxCell id="1" parent="0"/>
                <mxCell id="3" value="" style="shape=image;verticalLabelPosition=bottom;labelBackgroundColor=#ffffff;verticalAlign=top;aspect=fixed;imageAspect=0;image=data:image/png,iVBORw0KGgoAAAANSUhEUgAAACcAAAAyCAYAAADfuMIdAAAABHNCSVQICAgIfAhkiAAAABl0RVh0U29mdHdhcmUAZ25vbWUtc2NyZWVuc2hvdO8Dvz4AAANeSURBVFiF5ZlJTBNxFMa/NmJtQ6IHIiRSF6KNJhiMcSGiHoghRjQajQkHD14NJxL17FXP9Gjk4AETILIphEBMhSJVCyLUFhOEThUdO9DSlul09WJrF6Z9s9QY/G7T/9f3fn3T//JmNMlkMgmFCvACGDebvj5iMgIaQKMw7ja5XwzyAqy2eUzZFxAIbWSNhTYE7NBtx6ULJ9DYUCcbUiOncg4Xg+4XE3lQKa35Q/D7AgAAY3Ul7rfeQGXFrtLDvZ6aQ/+IraBndS2A9fVQ+lqv1+HBvVs4YKyUBKeVYl7ysHj5yl7UF4lEs655XsAjcxeCvFA6uOfDk4hFY0V9iUT+zeA4P571WqSko8M5XAy+rXAkb27lUhoefSupemS4NzMukm+zqmVqyu6kpqTDfWG+k3yCSNVSWmLYguOZIsOFgmGSr1jllpkf1JR0OK2WtpRGCBOGnJNs1NDg4kXgKip2UlPS4fbvqyL5YvF44TgSFmIyXK3JSPJFY4Xh6o+ZqCnpcMfrTNBqi9vjBeDOnjmK3RL2WDJcuV6H680NBT2xWEJ0TK/XoeXKOTIYIHH7OlV3CAdr9oiOR2Pik6H1drOkqgEyj0w9Q5Ow2hx5y0sgFAbn9WV9ZjDocPfOTdQe3is1jTw4AGA5PwZH32HeuZSGzDzHGQw6XGw8ictNp1Gu18lJIR8upSAvwO1msbDoQRwJlJWVoaa6SlalVIcrpSRNiL+tdIPDcn5Y338ifelaU72kJKzXh7GJWZK35er5fDivdx1Wm4OcUArgQ3M3GA/tNJIJJ+u2Wm0OOFwMydvZayGD5Ur2f657aKLokXvO6UbPwLjcFPLhAoENPO0aEx0P8gLMHf1ywwNQOFsXl1dgsc1tOtb+uA8c51cSXvlSMmKZAZsDYbM7Yf/wWWlo5XBCOILOvj/9KOv1wdwxqDQsAJUWYc/Xn+j83TC3PxkAL7GzF5Psp0yZ4sMR9AyMg131w7ngViMkAJW3r3HrRzXDqQMXFgo30nL1T2/8qsAJYXUmQK62fuXC4YgaYfK0tSun5oObXCmGi8fFG2ml2tqVK/awUIkUw0WF0sxUQI3KlbDtzTqVyHlHFYlGlb+BE9H/0fGX4jeqAjc9PY22tjY1QmVJFTifz4fZWdrjBin6BSpTZuNsj+fsAAAAAElFTkSuQmCC;" vertex="1" parent="1">
                    <mxGeometry x="70" y="160" width="39" height="50" as="geometry"/>
                </mxCell>
                <mxCell id="4" value="" style="shape=image;verticalLabelPosition=bottom;labelBackgroundColor=#ffffff;verticalAlign=top;aspect=fixed;imageAspect=0;image=data:image/png,iVBORw0KGgoAAAANSUhEUgAAACwAAAAxCAYAAAChzEtEAAAABHNCSVQICAgIfAhkiAAAABl0RVh0U29mdHdhcmUAZ25vbWUtc2NyZWVuc2hvdO8Dvz4AAARBSURBVGiB7ZldTFtlGIAfTE+1cEooi0AtDYxWKYbBFvAvIxCXZS7LJDEZF7Irt2xcmGyJybzxznCh0SuNF8CtXphdjASH0zWRuGZFy5yYosv4yWJhpWW2pC1pbJfgxUnP+nMKhXMOnQnP1ek5+b4+55z3e7/3+07F5ubmJv8jnim3wE7ZF9abfeFS8Q77Cd/9B3Y45CvKlSW+tv8IgNhu4tDlFuxH6zCahW3blV04g9EqYO9/ns5zDiqtJqhQbvfUCGfT8HYNB/ttON6yFYg/lcIZxHYTfV92YnFWy+e0HXQa33rCnySdSOec00w4FU8zOejFO+wnOh/TXD6DQYtOUvE07oszRDxxIp44iyMPt4xDNah+wtmy2axOrOO9MMf4qVtEF2Jq/0ZGlXAx2WyU4lANhcIlxl4psnogx/BGMMm9qw8IfP8IS6fIGx+1F515yiULWcKLN1b467MAIL3G6Ow0fV90YnmxOqdBOWVhixhO+JNcPzbNvasP5HNbyTb019B2xa6LZDaKwrW9Zvl45oP7cm5VlDVAx8ctHP/qVYQSihe1KAofH+nOkV4cecj1Y9MFsoJN4MS1Ljrec+prmYWisFEUJOkes9JlQCpQ3nH3UHf4gG5yShSNYaMo0P3hS4rXxHYTvZ8ewSjqHwL5FBWOzseYGvpD8VrCn8R9cUaqGfYYReHofIybZ++QCmbNUHlVR8QT5+bZOyzeWNHTT8bn8+Hz+ZSLn3zZtit2Dp1z4h6aIfLzk4GXCqbxXpgjPBSl63KrrsKjo6NAkWotIyvYBI5+/jKNPfWAlD3ypUHKItG5OFVNz+kmPDY2BmwRw7W9Zk5fe12Whazs0VuYPSKeOIFv1nRQzUV+wo6TNoyigaXxIPWv1dB1qU2xQUZa6UnvBbJwldWEa6AZ10Dzto3KKb3renir8NATVQX8ttIGaSxU1Veq+Zv8LtWhGB4GcJx/Acdpq+ZTtyaL0Iy0d9iPpdWM46SNKqtJi64LMOQsiVSsbo2iQN8nR1QLbYfB/f6v8o+6V2rl44bDlifnlV6rhkv3nWBofLOOpfEgkdtxVifW5QtKZY/RKlDbXQWAUC1gaZUGm1E0UOuUjsX6SmkzLx+NblDeW0sl0gQ8YZanwgS+XYPH6jsX202IB58FwOIyyyuSA04zPw3OltTHiYmunDdcdDNw2RMiMLVGyBsl8WdSkxvYDfnCRbNEY0+9XEdEF2IsTa4Q+mWdyO142eShxLRmcVbTdUla7m8EkwQ8IZanwqxOru+5vKr94Uzch2ei/P3dGukV7bakMpNPx3lHTk7XdEN72RMi9FuEwA+Pdh33YoeJljNWXANNimtG3XbgowsxArfCLLvXto97AzScqsH1blNO/a3Ennwy2AgmWZ2NFKRMwSbgHGzANdBc8lS+5984Uok04d8j/Jt4jL2nbsdbBWX7KLNb9j/d6s1/lrPOF3CLOIcAAAAASUVORK5CYII=;" vertex="1" parent="1">
                    <mxGeometry x="180" y="163" width="44" height="49" as="geometry"/>
                </mxCell>
                <mxCell id="5" value="" style="shape=image;verticalLabelPosition=bottom;labelBackgroundColor=#ffffff;verticalAlign=top;aspect=fixed;imageAspect=0;image=data:image/png,iVBORw0KGgoAAAANSUhEUgAAAC0AAAAtCAYAAAA6GuKaAAAABHNCSVQICAgIfAhkiAAAABl0RVh0U29mdHdhcmUAZ25vbWUtc2NyZWVuc2hvdO8Dvz4AAAZsSURBVFiF1ZldTFNnGMf/GJPuAFrdKXTJ2iImlmpgBbRi+DKxOOMETPwAL3rhJMuyyd3E3SHsYjGyS5xRN2ULF6DMBYE4kWpWgfGVQtG4UhI6W5bY0poyCsdz1V2c9tjz0dKW1mX/y6fnfd9f3/O8z8d70gKBQAD/M236rwES0eZUTCr26tKSOH9SoAMBwL7owvO5l1hbfYMXNofgmT1qFbJkUuSrc5At24a0DfyLtER9OgDA7nThycgspmZs8HqXYx5LklLsK1SjWq+DPGtb3GsnBD1rdaCnzwRr+I6mAaoP5didp0IGIUGWTAo5uR0Li6+wtvoG7tfLcDjccPzt4vhPeWkB6qsr4oKPC3qFonGn14SHxknWplGrcLC0ACXFGmQSknXncHt8GJux4TfjJDyet2/nRHU56o9XxuT7MUMvOF1ou9rDuoFGrUJdTSXyNapYhovqudWB73/qY+GVCjlaLhiwJSP6n48JesHpQmtbJyiKBkFIcLK2ArVV+xOG5aur14Rf+4cRAEAQElxqMmCnUp44dDiwUiFH47lq5EaZMFHZnS60hG1MS5Mh4jpRk4udB9x6MfJEG1WuUo6WJgMIQgKKonHlag/8FB0ftJ+i0X6rnwMcy0HbiMLBvd5lXGm/K/pcROjuXhOciy4QhASN56o5wMksVgJgklNIuUo5mr48DQCw2hy4PzQhGCOaEe1OFxvWTtZWcFzix65HeDHnQBa5FboiNQ6VahPKbiurNJ78YcHUtA1L3mUcrdKxhztfo8IRvQ4PjZP45f5THCrTcjZNFPp21yMATFjjRwnT6CwoioZz0QWzZR49fcP4tE4PXZEG/jUadqcLfwUTSkhZMimyyO3IVcqRmS7B41ELfu4eAhXms1PTNs5a9ccr2UzbPziOM8crI0O7PT4209XVVPJ/5iwEAF7vMr67do89QOuJJKWiKd/Kq1cyCQlO1ZTjescAHhgnUf1xCbvbAp/uG2LcQqmQx5U4YgEGEFeNoi/TspsxbraydgH01IwNAPBJ1b6YJ0+GSFIqaq8s/QgAMDltY20caLfHx+5EQV6O6CRKRWridI4iW9ReUpgHADBb5lkbB/rZ3EsWLFsmrLq6gmEwFTJb5jER5gIhhbuo3cmszYFeChYuWeRWwWC3x4d7/cNJBeXr9h2jqF2jZsAXHK8A8N3jNQO9QyRVj83YBLZky+tdFt3t9GDUCG3qpsnJt7VxeH3L19R06qEBYMHpFtj4m7jpxo0bWFlZeSdAsUisv+Rr882bN98BSnLF8emcFJWd8UgmE8Zr/u5zoDOCDi/2itJTXJaGlP2+EHp1jcm2+Xk7APCgdyqZAP/SKYzFYhElFQoxhOQPFmcAkC1jQjEHes/uXABMHWHngZcU56UMVIwhpBd/2gEwvWMo4XGgMwkJm6Yfj8xyBucq5WyQT5XKSwsE3dFYMH3vLVKzNkHBdLCsAMDbwilcYqVqskQQEpypqeDY/BSN4dFnAIAD2l2sXQB9KFgOer3LMI5YOL/la1T4/OyxpF4mAswhb2kyCOqd/sFxAEwFuL9YExk6k5Cw5WBP37CgI9aXaXG5uQEatWrj8GmMS1xpbhB0+W6PDw+CLd+pmnLuMLF7Dz9F4/zX7aAoGkf0OjScOSy6pt3pwrh5DlMz84I7umigml0q7CtS40ChWrSaBIDmtk5YbQ6QpBTXLp9fHxoA7g9NoLN7CABw4YsTnNcjJj9Fo6n1h6idiUatwjdNhqjz8Ndu/sog6KAiXiHUVu1HcdD5r3YMYEEkdoeru9e0bitltTkE54Qv44iFBT6i14m2fFFvmBobaqFUyEFRNFrbOqOCm0ZnI/4Wrt+D0SAS8PWOAQDMW4nkllGhMwkJWi8aOOCRdirWxlZMATBdUQhYqZDjYuPpiM+v+6GID369YwCX2+9iZTVxyHC5lny41NbJdkXF2l3rXsHFfD/tp2jc6hpkgz1BSHBUr8OxqhJsyZCg7rNvY4IMHUbXkg/d/U/Z+QDmYj38UmbD0CFNmK3ouGOEJ+zQlZcWcBaPJpKUIkeRzemuVQo5ztYfjvmeJaFvLn6KRv/gOExjz6K2aOtJJpPiZHU59GXauMYl/HUrpAmzFWOWeZhnbFij6OgJJg2QkVLs1apRUpiX8KePDUOHy+3xwe35h/2iFVJ6xnvYqfgAO3LkSbnjTir0u9K/Fd/JwePYP5QAAAAASUVORK5CYII=;" vertex="1" parent="1">
                    <mxGeometry x="290" y="165" width="45" height="45" as="geometry"/>
                </mxCell>
                <mxCell id="6" value="" style="shape=image;verticalLabelPosition=bottom;labelBackgroundColor=#ffffff;verticalAlign=top;aspect=fixed;imageAspect=0;image=data:image/png,iVBORw0KGgoAAAANSUhEUgAAAJMAAABjCAYAAACfdzIMAAAABHNCSVQICAgIfAhkiAAAABl0RVh0U29mdHdhcmUAZ25vbWUtc2NyZWVuc2hvdO8Dvz4AAB+USURBVHic7Z17WFTl9sc/e7gOw2VAwQRUzIKTZYYKdsRSQbO0UvGYeUkTq2MeSzv1K4+al05pnTLTyjDLI5aVaaYmHUPFS2o1lFIqCpYMN5GLMFxmgIGZ9/fHOCPjDBcLlQa+zzOPsvfaa6/33d+93vWu97KlqqoqQTsahBDW1SNJkuX/BoMBJyena21Sq4Xz9TagtUEIgVqt5uTJk5w5c4YTJ06QlZUFQLdu3ejVqxc9e/akd+/eBAQEXGdrWxektu6ZzN5FCEFiYiLx8fHs3bvX4oHmPf8UgcGdAMjLKeDbA4c5pDoKwPixY1n40kt07979utnfmtDmyWQm0ZQpUxgzZgxnzpyh8HwWr7+2hAeiB5qEjFWXLpDJqajQsU91lPi1Cew/8APx8fFMmTLl+hSgFaFNkslgMCCTycjIyODpGY/RKzySxyY/yq6De6nUnGfBM4+ZBCtLABDacrt6JIU3u789xqi4Z1i6dClz5sy5VkVolWiTMZNMJmPDhg3MnDmT/fv3U1BQwMj7H2Bt/OtED7ofqkoQ5fUIJBlM/wonq2NCV8qwu8JJ2ZVAxL1TUSgUPP7449e2MK0IbZJMiYmJvP/++5w4cYLPP/+cQ4cOsemz9+nX+0aoLEHoSoEmemnCyUKo7t07suPT9Tw44VF69ryVqKgB16QcrQ1tjkxCCKZMmcLmzZt54403SE1N5aFx4y4RSVsO5t5/xwDQVYGuogFlJsLJvYKBIkaPHs09w2Ipr8hrkykD2fU24FrBYDBQV1fHkiVLqK6u5qWXXqJ///6MGzeO7l2VFiJJRh1Sx0BSywRR98/AM3QIpwo09pVKBvDw5rkl7/Fm/Hvs2rULQTm7du26toVrJWhTAfiKFSuYP38+CevXExgUREpKCsePH+cvgT7834yHLYH2j/kGBt03hu3rVuDr48PN3fzwdm7gvZMMlNdK+PgpKSvRsOD1dehkCj788MNrWLLWgTZDppqaGnx9fVm5ciU+3t58k5SE0tuHkuIi+t3ejZmj7zI1Wx5eDJ70PO+9/BS3dFICIBl1CCc36wC8PswBOoBcSYfb76OoqKjNNXVtpplTq9UAhISEWIgEoDcaCet6g0WuvLyMhTPHccsNXpZjQuZBea2EXUgGE8mEE+W1EkKnYdKo4Vy4cOGqlaW1os2Qqbi4mM7KANRqtYVIAEXnSggMvEQmb2cZ0eF/sfTWwJRP+mp/CpLC28oLWWKpi8cOnD5HeS10De5sGYJpS2gTZDr10y8MGzqUTiGBaLVaq3PCuZagDt4NXispvMHTD+8bgkg7m20hWXmdkS/2pCB5+CIZapC8venTO5Sv9v9I584dUGdmXu1itTo4PJlOnz5N34H9eap7GEVFRZw/f56Un37kfGEBAK6urk3qEBUXeCA6iueWvkt5nRGEE97ePqSnpZFTVYtwcuPHY2f5KTWd2S8up8ZFztRHH0WlUgGmnmRbgEOTqaKigr7hg/h3cDDT6m4kLy+PYz8c5tEpo6GmjB07v0Kp9CXvgv3hEoA9h1R0Cx3CyAlPcODgD6aDkgGqNMyJm8TUCU+Bp5LTmb+x+bOtJG1cTUc/XyKdPBg8eDCZ6rQ2E4g7bG+urq6OBx94kJsPHeetrj2ZXpKG+8gYXl38T/arjjJwyCAemjgVqUrB8zNGM7RPD1slkgHJw5cffzlLaVkZQUEdLD08MDWBr8d/RrXMhRefGAuYxvE27v6BDs99wcngCj5WKFCpVM3ygH92OJxnMjcp69at48D+fbzs1QPOFnCg7ALPv/gC+374iYcnz+SRSdOZOHY0R1QHkEm11t37ehC6Uvre5MvQviGmHl49OaEr5bmZ4zl08Agfb98NTqY0gt7VnQAqeDY3gJKMDJYtW2Zlm6PCIT1TQUEB3UNCSArty8CMSgQKFNIxCjK+Jyczg3PnzgMQGHgDPW/senEIxdBwHglsz9f7u6zWQOSYp1j976cZMOBWlq/dxYjXt9IXOce6OBGVm05qaiqhoaFXs9jXHQ7nmYQQ/GfZq0xQdmRghvk9qWAoLqiOphPUwZsKo5ahAyO5pZPy4qAujRPJfN6cKvDvhOThaznl46dkyv0xCOGCAM7lnifUNwiQEZ7jwUtBQSxZsgRwbO/kcGQqLCzkvTXx/MulB6AFFEjAk6IHb235Eh8/JaP79jWNwym8myZRfQgnyuuMrPtiN0IGOncZaedLeWb5B5zOyWXYXeF4OHvwS1IyXqUawAhUMKUyiC+//JL0YydwcnJyWEI5HJk++eQThuLCTUXmwVktIONe5Ozdso13PtoBHl5UyP15Pf4zm0SkPZTXGamSmzyTt7cPH6/5mLjn3+ahGS8T/9+tPDFqOB+tfZOtB/fx47Gz/PXCRW+HDJDhrynhYZ8O/HfTxwAO27tzqJiprq6ObuG9+PBXOfdSh/W7YuSMvx8xRT/gGxqKTqdj6qSxLHg81tTUNeChJIU3QgZf7t/HudwKInveiEtAF1yrNHj4uOCs8Gf/N/tY/H9Lef3DRZzLKafHok3ch+dFDQqggu/D3IjOzkdz/qzD9uwcikzp6emE33EHBb798SotwdbxGgEv1nSt5ZmcE2Qc30Owu3OjAbik8GbPIRVhfcM5kLSfl996n+zcIgA6KwMYPT6W+DXxbF+3gph7/krwoPGcvtDpYjN3CeZOwIEDB4iIiLg6FXCd4VCT435OTaW/swIvXzcotdeCywAtT2TDfyQ4pcok+N7bQVsOwolTBRq05eVE3HGblbf6S78+JKz+mH/EjWLSww+AropTmTl4+DgT4OvDv//5APJqPVt3fc2EX3PwwgVbImt52KcDhw8fbidTa4cQgqNHjzEsoCOcLWhUVsJIXOeufLYnmWEj+l88aOCW7l14+sW36Bz2F4LM03K15QQBo0cNITBiDGNGRHNL1y4WXf0j72Bonx6U1cKU6StQK/uBpsTuPe/UuXMgJaUli92q4DDNnBCCBx54gH/sPcd9NvGSHXkUdJOOcTLje7ykaktTV14rseD1/7Lq33NsputmVVdy6NBJ8vMv4OHtQVjXGxgw4Fbkzh7Mmvsm2Z//j6+4scF7JlLJOHk1upLclihyq4NDkUkRqOCIVxh35DRUJOPFf2UIFIz1zyJ82iRenDMZUXwOhBOSwpu0s9ksXZXARysWQNXF2KdePCUpvC/FWZ5KPt66myeeW4rk7ssX1Z0aJPOxLhJRuelUVFQ4ZI/OsVIDGoFntU8DJ01EEsg41kUiTpnNrqJalr3+Nsd+PY/UMdB0XlvOLTd48a+np3LPE8+Tll8O8ksJSvOKFLy8SMsvZ9bcN3niuaWEPPEsPtFjmOieyZqu7ph6cUZbM4Dq6uqWK3MrgsPETE3D5I1eCbzAK7nZMPheuCMGv++TeXDQKJasepk7w7oS1MEbb18liHKGDRtGxPApTJ34EPeOGMxN/l7oKms5rT7LruTv2Jq4F9z9kDp3p/x4GprBw8BpHM989RHFgd2Yf64DpjyXCUEVDRHdMeBwZKp0L7v4PwWmB2lE4MX/qGIWx8j370vI/eNQK0yzK0sGDwVdAVu3JWMYNYrffvuRnJwcvt+6lbjAboR36MimrTtI+ORzBvbvi1Eu47Zbw+gddSfbElNYFOrPtGwlL5xS8WnHDnBbH7p7uPDK9m107OrN37MvNa2ODocgk3m5t+9NIdQ4OQM1gCl4PuPvx6rS3/jAReAaPQVCe6G+eJ1rxnH0MiN07cne7DTC0k7xaNw0TqWlMXnrKe47V8d8OvCrvwtrO2v43ijj/nuGA4LvVsTzs/8t3PSLBiihZ7A7FKrhBBg7d6L7qNEkJW/n73TETOwyF9N93d3dr20FXSM4BJnMu5jcGzmAn7ccpD9yQMa3oZ7cU6jCM6QfIdGDUHcIIuRCHup8U+pALwNXo8lj6Lv2ZHV6JqsffATpfDr7wm6DdCOg5aYiI68VwSEXI58vjGeBZw/2eAoqpTLMGe4YyZMXMelT5xfgV3yBvi6emOImk4c8U1ROcM9+Dhl8gwP5XkmSCA0N5YSxGlOxjKRV66FbHyrHTUStuAHXX1JR5xfgapRdIpHM1Ay5GmXg6Y+yz0AYci9uujrq9/7MVVXpCWUu4JZXSW+XAKACYa5GDwUewvR+luoKuNuzo5WNacEV3PPX269qPVxPOAyZAPqEh7OtrhiTt5ARKWqRfj4D1WZPZLSQCLAilRU8/VEVVHKpeoyAkU6lzuT9JYR1k/5K9NIljMr8nlcC9bwvFfBR7q+4enRC46QHoHNWzsUpMCZiC2QcyCukf//+V68CrjMciky39+5NMVCkNAUnd+R44OauxzUjH9wbblr0MqPFQ+mkOgSwq4sb5u69QEYiOnoXq/jbxCksWLCA+wYN5T+HD/PJXTGkfPY57815DtfTJ8G1DlejjMH1mjeQUaRUspda7rrrrqtbCdcRDkWmgIAAYmJi+FKXB4BEBc/5dTI9ZLDxQvVJZPZSZu+1q2Mgx7ro+D7Mjem+JTz394lM/HQXc2a/SGFRFsd/PUXwzSEYffwAmNR/CEpXQO9MbfFZxmn8re71pS6P8PBwQkJCrm4lXEc4FJkkSWLGk0/ysj4Xc1M3wklOXd4JQi7kERjk3+C1niVFVn+LgBAG+CkYkp2P9p/zCIsdTbGvJ/e/tJh3Vn7A3YMGkXbqFKEKP4p9PMjYsJ7cnjebLs7O417kFzWZ8lufilKmTZt2VcrdWuBQZAIYPnw4xfIOvO9aCBi5I8eD3nVOqPMLLLklM8zeyNUoQ9Lnow/tBVyKrfw8OhEx5B5qIiLpVCqjo0ZLTUQEOz/7hp9//pmKfDXyG27ALTWdlAu5KKs8oLKICVXlXEpWGkntokNVp+PBBx+8llVxzeFwZHJ2dubd5f/mNX0u4IVEBRMCb8Sv2LT239ysXY4L3p1sjpV07EDu/z6jZNU7GPU5FCsVdNI4ccezT6FWq3HvGIRnZ08Obf8CgoMBkHRaxmrcMMVaRsp8/XjmfA4rV64kICDAYafsggOSyWAw8Mgjj+AVFsYrgSYCRYpaStSnbYJwM7HM3fnLoTS4kh/7MKfSz7Br6njOrPsQoz6HmogIPt+4lZMnTvBd4i4q/fxxrXZFI9dC+iFu9g/m21BvpitL6aVRoarTWXQ6ao4JHGjWwOVQqVQMHjyYw8Fh3JHjgYe7Gp55EddfUq3kzE2aZ0kRJXdGX8qKX4TSYJpiq5NqCTibRvWpHxF9w+lqhKKiIvC6gdybbsGv+AIemkL8C9W4llejqtMSFxfHjBkz0Ol0DB48mD179jBggONuUegQGXB7iIyMZNGiRUQtXoJaGUl/rZ4fqq2bGA/hjL4yD0XOaTxcOqI8l8bZrEzTLoQluVBaRln1pYlueQCSBEdTcTV/uUCpp3N+NufLiigFpOBglq54k7F/+5uJbJh6mQnr17P2vfccmkwO65nANMfpkcmTKdv6FTXBXhy/fQzKYF9LFtxDOFOX/jPKmvNIFS506xXEXXfdRUhICJ07d6Zrx864+Xri4eFh0anT6SgqKuKLL77gI9UZvHv1JGvtcrZv345er+fHH39k4cKFzJs3j+joaKKjo3FycjItDO3enaKiIhQKxXWslasHh/VM5i8PfLhuHQ/kjeaU6gB+UcJqhpHGSU9IzGDUHQKR9m0jY/c3zdIdGBhIZmYmK8+WUOLRCemGMDSlpYyJjWX16tVIkkRsbCypqal8uXUr940YQUBAAJ2VARw5coRhw4ZdnUJfZzhcAG6GOdB1c3Pjq2+20Ts6mrO6WgCr5OS5vCKUP5+ErEIKCwubpbu2thYPhQIys3A9cwIRoOBsZiZOTk7o9abhlG7dujFo0CDuHjQIFxdTRn70+FhOnjx5FUrbOuCwZDLDYDDg5ubGuIcesqQH6kMvM6KT6qBjpyva7U3uLrdcD3D6xAnARKLCwkJ0Oh1lZWVkZWWh0WjQarV4K31QKpUN6vyzw+HJZPZQcnd3SoymOU6XpwL0MiN+noor2u3N3d0Nii+tgsk4exa9Xo+bmxsFBQUIIfDx8cHHx8dCpqSkJPr169cCpWqdcNiYyQyrb8Jl53GuY9GlTeMvwtUoQwBnr4BM3t71ti708yf/2FE2bNjA4cOHOXz4MBkZGUyYMIGBAwdy66238umnn+Lh4cFtt932xwvVSuHwZDITKSQkBOl8JvqvM+H2PtC1pyVu0suMVPr588svx5ut19XVFaRaqCwi+HwxeWVFBAUFcfjwYRQKBRs2bCApKYn169dTV1fH8OHD2bhx49UqZquAQ6cGLodarWbTpk28u2QJxYC4SCrzbIJOmWmcUu1rMkut1WopLCxkaNQQ7o65i71ffMEra9bwyCOPNGmDI389s02RyQytVsvatWt5c948igE6haJQeKE9+xNqtbrJL1zq9XrOnTtHfHw8CxYsoF+fWzl4KKXNfxnT4QPwy2EwGFAoFMyZM4dfNRr27NnD0tmPMv3+KIKDgzlxsVfWGMyepbZGj1arZeDdw5p1naPD4WOmy1G/iXF1dWXAgAGWIY4ePXrw7bffEh0d3Wx9kiRx2223kZKSckXXOSLanGdqDHfeeScrV64EGt8u0EzImlo9Hh4e3HTTTRw/3vzg3VHRTqZ6CA0Npbq6msLCwiaDZLlcjhCCF154gYceeshht8m5ErSTqR5cXV2Ji4vjwP79zZJ3d3VDkiRUKhWzZ8++usb9CdDmYqbGIEkSU6dO5fHHH8dHqeTmm28mMDDQattAc0+uqKiIan0N4eHhDp2IvBK0ydRAQzAvMx85ciT763knd3d3unbtihCCM2fOWI7L5XK+++47h9/fu7loJ1M9mINuJycnCgsL0Wg0FBcXU1paapGRy+V4eXnh7+9v8VqOnIi8ErSTqR0thvYAvB0thnYytaPF0N6bawBC2Lb+ktTAd3p/p96W0Nea0E4mTIG3wWAgISEBIQSlpaUU5J+noKiQsrIyysvLOXHiBJs2bfpD87crKyt544032LhxIx4eHsyaNYtp06bh7OwYj6HZpTB3m68Uf5a3TwjBxx9/TEpKSoNeyTy/+/fqHzFiBCn19gF/+umn+e2333j11Vd/t97WhGb15sxEmjVrFsePH8fT07NReb1ej16vZ+jQoSxcuLDFjL1aqJ8SqKurY8GCBZYxOjMkSWLz5s2MHDnyd93j+PHjREZG2hyXJKlZ017+DGiWZzLnUPr3749Go+HLL7+0+/aaIZfLmThxIj1vuaVlrLzKqP/ZLmdnZ5555hkbMv1RlJc3/B1gR0Gz2y2DwcCUKVPYuHEjhYWFTJw40a7c9OnTKSkp4Z133uFv48a1mKFXG/WTjldjBUm/fv2Qy+VWx8zr6xzBK8EVkKl+ZXt6ejJ+/HgbGUmS7LrydpjW7x09epQhQ4YgSRKSJDFx4kTWrFlzvU1rMThGN+JPgpCQEL7++mu0Wi0uLi4O9925Npe0NKcBricUCkWLEcleWVqyfGZdzam36+qZhBBotVoyMzOpqqoCwN/f37LvY0NphcaC/8uvE0KgVquprKzE1dWVHj16tNigbHPtuBJ7r1ReJpNRUFBgWdoeEBBwRTGY+V7mOgJTGGN+Bk5OTqhUKkJCQprUe13IJIRg9+7drFy5kuTkZJuHD1j2NurVq5fVtcnJySQlJVFbo6eqpprs7GxycnLIyMgA4F//+hcLFy6ksrKStWvXMm/ePJv7z507l2effbbJFEdTZYibMoXfsrLw9PS0ysEZjUbKysqYM3s2EZGRxMfHA1BRUYFGoyEnJ4f8/Hxyc3ORJMlqZ5TCwkLefPNNG/njx49TXV2NJEnodDqEECQmJjJ//nxL2c2IiYlh+fLlhIWF2bVdr9fj6uqKSqUiISGBdevWAbYvYVxcHIPuvpupjz7Kli1bmk6LVFVVid/z2759uwCsfpIkiTVr1jR6XWZmpoiKirK65uDBg6K4uFjs2LHDRt+yZcusrt+xY4fo0qWLkCTJ7v2XLVsmMjMzhbu7u5Akya4cIIYMGdKgjRqNxq7uLVu2WMklJiaKuLg4GzlJksScOXPEqVOnRFpamujTp0+DdkiSJIqLiy061Wq1iIqKalBeLpcLnU4nJkyY0Gj5JEkSp06darCMixcvtpKfPn26SElJEVlZWeLgwYNi7NixVro3JCQ0yYlrSqbMzEwb+a+++spyXqfTiblz59rIrF692kbXhoQEu5U4ZswYIUmSiIyMFKtWrRJr1qyxIm9zbG0umcw2R0RECEDIZDLx0YYNoqyszEYuLS1NhIaGNkmm+vL2yhccHCyGDBkiJEkSr776qtiQkCBmznjSrmxsbKzd8sXHx1vJhYaG2pVbvXq1hVBNOYlrSqb6lV5fvrKy0kpuz549TVZ4ZWWl0Ol0Ijw83K7s22+/bUOO4OBgG9moqKg/RCadTieWLl0qJEkSkyZNskuK+r/Nmzc3i0zmOrnce5h/Y8eOtbrG3kto1p2VlWX70C+Ti4mJsZEx27Bs2TIBiFWrVjXJiWvWm0tMTLQalwKIjY21CYYDAwPtXv91YqLl/+Zr/Pz8bOTi4uJ47LHHrI65ubnx/PPP28geOXKkecZfBoPBgBCCt956i/nz57MhIYEPPvigyR3hLk9aNgRz+Xx9fW3OSZLEunXrrO4lSRIPP/ywXV2XbxNkbw+qvXv3olKprAJ/sw1PPfUUkiRx7ty5Ju2+6mSqX/GX4+abb0YIYfWrv+WfGUIIfjp61Oa40Wi7DXOXLl1sjgF07tz5d1hvHzKZjCVLljB//nyWLl1qyfRfi5SDu7u73bRCQ1n72traZukdNGgQkydPJikpicrKSguxzL25sWPHNqnjqvfmzPs5Hj582Obct99+y0svvWRJC4D9MSxJkihsxptxLSCEYO7cuaxatQqAefPmMXr0aEJCQlr9PHCDwUBAQAByudyqzs3YunUrW7duBUw9wimPPMKIkSObvfrGhkzmyfGX5zr+yFSShrb3y87ORqVS2UztGDp0qNXfRqORTkFBv/v+LQUhBM8+80/eWxNvdWzWrFns3LnzOlrWPJjJvnz5cmbOnNmo7N69e9m7dy8A27dv55577mly4YRdz1RXV8fLL7/Ma6+9BpjikNdee+1352XsvQVgGhR+4YUXfpfOaw0hBOPGjbP7UiUnJ7N27Voef/zx62DZlWPatGlkZGSwcuXKJhOkAKNGjSI+Pp6pU6c2KmcTM8lkMubPn28hEsC6desaDPCaAx8f+x86zs7OBq5NrNESmDRpktV6OjOEEMyePZvMizvPtdby1Ldr2bJlbN68mbCwMMvAc2OYMWMGWq22URkbMmm1Wks8UB/JycnN2o22Q4cONseCGmiidu/eDfw5PgEhSRLjx48nMjKSxYsX25wXQjB58uRWSyQw1fORI0dQqVQAjBw5ktTUVNLS0nj33XeJjo5ulFQ//PBDo/ptyJSXl9csw/Lz8+0ev/XWW22OKRQKYmJibI7n5ubaDAXYQ2VlJTU1Nc2y62rCHNs9++yzdocqjh07xttvv92qX44dO3YwaNAgK9KHhIQwbdo0EhMTUavVzJ071+61DYUrZtiQyV4X0zz3xjzQJ4Tg52OpNnJRUVF2P84nSRJPPvmkzXEhBGvei7c5frnME088ga+v7x+ag92ScHZ2ZtOmTXYHaOfNm0d6evp1sqxpmHNXb7zxht3zAQEBLFq0yO5GHPbyXvVhQ6aAgACbtfMRERGsXLnSwuaCggKrHg2YCLN06dIGbzRixAi73um9NfGsXbvWJhAUQlBRUcGkSZPYtm0bq1atsuRXzHZcz8UKYWFhdssrhGD8+PHU1dU1W5dWq21281hdXd1svfbg5uYGwOLFiy29NXvTS3r27Gn1tyRJ9O7du1HdNmSSJIkVK1ZYHlRYWBj79+9HoVAgk8moqKiw+aKjJElsSEggIiKiwUqRJInPPvvMpnkQQvD0008TFRXFW2+9RVJSEjt37mTJkiUEBASwbds2Fi9ebJXVNk+7SE5OtrnPp59+apV0M9+joW0CExMTbWRTU229rhCCr7/+2pJcNRgMPPnkk3az2unp6cyePZuamhqLvNFoJCkpya4Nn3zyidWsA7O8vWAfsMlWm6fZ2LN548aNFhvAujN0//33k5CQgEwms2qahRB8882lT39IkkTC+vVNf/OloXGWNWvWWEalZ854UsTHx4tFixbZjP3IZDKRmJjY7DE9jUYjZs+e3eiId33d9QeCq6qqhEqlEqGhoZbrG/rNmTNHVFVViS1btojg4OAm5ffu3St27tzZLFmzbvNYYmOysbGxIi4urkmd5nFN8xhmU7JdunQRlZWVQq1WN6s+5s6da3muXBzfM58LDw8X7777rti5c6dIWL9exMbGWs2AaM6MgaqqKtHoUie1Wk18fDzvv/++lXt1d3dnxIgRTJw4keHDh1tWdzQn8DTLFRYWsn37dnbs2EF6ejq5ubkABAcHExkZaaX7cpt2797d6MLFuro6goKCLOvUUlNTG5U3GAzcfffdABw4cKDZus3Y/PnnVDbQbXZyckLu7o6mrKxJG3r27MmAAQNYu3ZtkwszDQYD06ZN48KFC2zfvr1JmwMDAxk5ciTJycl8vH496zZssDyDbdu2sW/fPqtrYmJiGDduHGPHjm32V6iavW6uurrakmdQKpUtOn/Z3GbX1tbi7u7eqntDjgq9Xm8Zx/u9z6BJMtVfoNgOx0RL7S/V5EBvO4kcHy31jNvc6pR2XD20k6kdLYZ2MrWjxdBOpna0GNrJ1I4WQzuZ2tFi+H+eGQ2n1kzq4AAAAABJRU5ErkJggg==;" vertex="1" parent="1">
                    <mxGeometry x="390" y="157.5" width="89.09" height="60" as="geometry"/>
                </mxCell>
                <mxCell id="8" value="" style="endArrow=classic;html=1;strokeColor=#E07A5F;fillColor=#F2CC8F;fontColor=#393C56;" edge="1" parent="1">
                    <mxGeometry width="50" height="50" relative="1" as="geometry">
                        <mxPoint x="110" y="187" as="sourcePoint"/>
                        <mxPoint x="170" y="187" as="targetPoint"/>
                    </mxGeometry>
                </mxCell>
                <mxCell id="9" value="" style="endArrow=classic;html=1;strokeColor=#E07A5F;fillColor=#F2CC8F;fontColor=#393C56;" edge="1" parent="1">
                    <mxGeometry width="50" height="50" relative="1" as="geometry">
                        <mxPoint x="224" y="187" as="sourcePoint"/>
                        <mxPoint x="284" y="187" as="targetPoint"/>
                    </mxGeometry>
                </mxCell>
                <mxCell id="10" value="" style="endArrow=classic;html=1;strokeColor=#E07A5F;fillColor=#F2CC8F;fontColor=#393C56;" edge="1" parent="1">
                    <mxGeometry width="50" height="50" relative="1" as="geometry">
                        <mxPoint x="335" y="187" as="sourcePoint"/>
                        <mxPoint x="390" y="187" as="targetPoint"/>
                    </mxGeometry>
                </mxCell>
                <mxCell id="11" value="" style="shape=image;verticalLabelPosition=bottom;labelBackgroundColor=#ffffff;verticalAlign=top;aspect=fixed;imageAspect=0;image=data:image/png,iVBORw0KGgoAAAANSUhEUgAAAD4AAAA2CAYAAACfkiopAAAABHNCSVQICAgIfAhkiAAAABl0RVh0U29mdHdhcmUAZ25vbWUtc2NyZWVuc2hvdO8Dvz4AAAeUSURBVGiB7ZlrTFvnGcd/btgxZRwDAUPjS2IIDiSwBEaIlQS6XJbL1C7JLqo2rUn3ZZVK+qXSpFTKl0STaKRp2ieotnVKQ9IlW9cFV1WqNVhdSQtNcyFigLnYFgHsipiUi90l9kTOPjh2fDnGPlASTfD/+J7zPn6e5z1+3+f3PipJkiSWoJ560g48KS0HvtT0zQS+2LvEItjPmPdMCQK++4zZHAy3OdnddJCOEx/xrW8L6CxG9PVrQTU/u3f7x3FY+8gv16Ix5NLTchNDvQldnYnsVZp5uxwtldJdXZKkULA2B/ZT/ZHxlx+8RvuxS0w6pgBY8fQK9NuNmL5vJs+snTsJEvg8Uzha++i/0IfvUx8AtU0W9FtW09nYHnlVu7GAVVuM6OtKEDRqJa7HSNGKXzn+Ia6LLgL2IADlx8v5zi9qeHfDOwnvzt6bZaRtmJG2YTIL1BRWrQolYZ025r3xq6N0NH6C930vAGKdyK6Le7jb75X1wds9gbd7gu63uiJJKP7BesVfV/r/cQkmeu5SUKtlf9vz1DZZKDtQSV55Ycqp9ycCjLQN0/76Za799l8xzzw3RtFt1VNwSMvLD15DU6Kh9FBlWqsZTsAHL/6VyUH5RCVT+oGrwLSvBJ3FgFrMVPQj0brn/U/CmOXYTtQaYd42Z+/N8t+ZgKI5y8fZUtNy4EtNy4E/Nsmct9Ki17yJUnSOezrH+KrXG1M7K3FZUoFoyk0Yt5+9CQ8eJuCBQqPA09pMsvTKSllFlVumRo2z2YWz2YVYJwKQpRdTzlNr1ZTsMWPaV4YgxhYm+WVaPjvZju/KDBeG/wzA+BejKW1KKtBt1WHaUUrhZoOSMIB51Op+zzRDrb30X7DjuzITGU+o1bNWUFhVlLZjI7Yhhv7Rh7PZFRmLr9UlFWgM2RTvM6OvL0lIohIlX3EJgr4AqCDoD5D9jAZUkK3LobphG9UN2xj/YpRBaw/9jQORaaIxhWMS+L+cRhAzQSJSmq7ebWb1bjOW49OM2Bx0/+lWZD8IJ9F8oCKh1o/46g8giGr8X86kRXCxKx6Hms5mFwev/hSvfRz3Z7cfgUYcbQV9KX70IWr2tdzEZXWx8dXqyErOBRpBX6gMTZbAu/3jOFr7cF1yUv7zDVS/sg3rT/6SFsFlgDxqChWxtXMYNMK0pd++BtPedWQ/o4k4FhN0nGNh1Iy3G6at3ne6KaoqimF5uYB97kR8TWaz+60udFt1svcDGUjQUtFMwB5ErBMR6zVs+lUVpQcreTunWTZb9ycCOK2DOK2DiIZsDPUmTPtjN66uNzu4dvQqAPojetQFmext+iFDrb2yNmfvzeLp9ODp9NBz7pYsxva13ODTl9pjbO44tZfbNoesTSBis+sP1ymqKmLNztCe8xSAxpzDpjeq2PW7fZT/bD35ZYVpbxy+MT/28z18/htbwrNdF/egP6LnubdfQK0RyNblpGUzGmPvXB+LjAf8Afa3PR9jc2VZaiyGR4ntbGznzvWxUOCCRljQbUYyiWkGqkQLQeJoLZesS03LgS81LQe+YMnh5gJpU5K7Mv6GbGYATNzwMjM8gzr70ZGWLiNLKsgsUGPcUZzw7ONf/5PMlZkEfPcV42a4Ps8ti63NOxo/AUINiPnazNJryEAF2xu/x+3LzkhVtLbBy2r3VFpGkoGD+VAFfvc0TquLMzlvIlQI9J29gd89TbZe/nyXVFAYXbvL2AzOBLCf6+O84TRChUBXcwd+z9w25YguBlLkkDMMKU7rIJIKVpbmYtxRLOtYMjlaexh4rw/3OTeQiJtqrRrD9jWY9qxLuzcWj7G1TZYIpIRtFlWtwnyoUtZmUh4fsQ0x/LGDysM1TDvv8vXE1/KOSTDZf4e89YW4253kmLURhI2X3zNN79mb5Jdpyd9QxND7vfK8/hCJg/77oFIxPeRN2oT0e0IYK2jUlB6spOPkR6zZuRb9s2vnTJzii4iwY/FNvuiLiLyHX4XSxl6YEgcvhlYy+stQ1IRMQ4qunnzuKUZtTgbes0eafPoX9RE8DGvSMcWkoyumsZc0CRKM2oYYtjlwWUMNSaFCQHsgdt+Qa0Kaf1SZ9OtKpfQDl+C84TQAaxtKEI4IbD66laJaI3889/uk0+J5O4yFYYXxVb1eYOOr1XiujvHcmRfoau5IajP6biAZFqeSoqbhpjeqqG2yUPnSd9FZlF3whbGw/2/dCc9+Od1AQa2W6le2KbIJj7B4amCxuqWwKOgKSa6WFlnLJetS03LgS03LgT82JeuWPpg/ccriawopKmCuHb2KWCfid0+HxjYb08bXaJqL14VnQ81CV2tPKAFpVtHR5BWPr6mUfuCqEKkNWntwWl0Ee4OMtbsx1OnndCwVzVUcrkEtqhn4ux3bjy8DcIl3AdBtlS+SVmSF6vZk5JWOFNXqRVuMFG0xYnk9wIhtiH+fvoX9VD+quO83FRJGSxDVbDhcw4bDNXw1cIfelhuRxEYHnorVlWp+dBalMGpaju2k58x18orzUiJhKgV9ocQKohrRmIv789uKWD0dLTjw/1c9keNMkqS0N7DF0mMPXJIkTpw4wcmTJx/3T8doyRYw/wMlanqgi73QuQAAAABJRU5ErkJggg==;" vertex="1" parent="1">
                    <mxGeometry x="530" y="156" width="62" height="54" as="geometry"/>
                </mxCell>
                <mxCell id="12" value="" style="shape=image;verticalLabelPosition=bottom;labelBackgroundColor=#ffffff;verticalAlign=top;aspect=fixed;imageAspect=0;image=data:image/png,iVBORw0KGgoAAAANSUhEUgAAAD4AAAAzCAYAAADPX7uaAAAABHNCSVQICAgIfAhkiAAAABl0RVh0U29mdHdhcmUAZ25vbWUtc2NyZWVuc2hvdO8Dvz4AAAsOSURBVGiB1Zp5dFTVHcc/b/aZN1tIAglJUDwQlAoCIoJEKkhlKVWM9GjFjWNbrVjKOWpP3ahiFZVSKSoFtRba4rFUrZbisUCrLFFKkdUgCTuBkHUya2bebK9/TOYlk5lJJsmktN+/3rv39+6937m/+/t9770jyLIsk0VIspe3mx/BgJ4Feauy2XRWocp2g/ukvxKMBHFHPFSGtma7+awhi8RlKkNb2eNqJ7vD9R41kYPZ6yKLEPrq6o3RY7jkJvb7PqHWfzalzQjzGIYZJmAT8shXDe9Ld1lDn4i75DrWNTzR9tZdMwI6tY4f5a3pbXdpEafgcrk4dOhQUv31118fG4EgtI8mG8HNJddxRPone1zb6PwD6NR6xpinMFI/DZtQkHrgQK0/RLUrQLUrkFRfajNwda6IRasiPnRZljlz5gy7du2ioqKC3bt3U1tbm3aM5eXlLFu2DLvdDmSJeByN0eO851hOMBIEQKfWMW/AY+SrhqW0d4eibK938/ZJBx86/d22P9du5I5cDeEDO1m7di1VVVU9Gt+IESPYsWMHAJoefdkN8lXDmGKbxzbHOwDMyVmYkrQM/O2ck58dusCRcDSjthfkmykyatjb4ubYvq+pqq5W6jq68DXXXENJSQklJSXU1NRQWVnJ0aNHAaiqqmLDhg3Mnz8/uzMex2+aHsCitnFXzstJde5QlKcOnOfVC+6M21uQb+baPFNC2fmqSj564WlKcu3MnjWLsrIyRo8enfL7ZcuWsXLlSgCmT5/Ohg0bsjvjceTpCijWjUgqd4ei3PvF6YzcuiNGWg1JZUUjvsFD6z9ALcDtl+Zi0aTPzKNGjVKeXS4XkGVXj2OsOBObkJ9Q5u0B6UEqgUlWAzlaNQA6lZDWNiLD+6cc3Dc8L63N5s2blefJkycD/UR8mHpSUtlLlRcyIj1Br2P+EBt6TXqynSEh8/7ZFm4bkpNU53Q62bJli/JeVlYG9INkTYXP6jz84qyzW7tBKqHHpONoksJ81ZL8wy5cuBCv1wtAUVGRktP/K8R/frg+I7updmOvSMext8mX8L5p0ya2bdumvC9dulR57nfim8452eGXMrI1qvs2HAlZmfWDBw+yePFipW769OnMmTNHee+XNd4RWy94+ruLBBxu8WN21VNeXp7g4qtXr06w6/cZ70m+rnQH+9xfg6OZe+65RyFtsVhYt24dNpstwa5fZ/xQSytPDbEnlElRmZrWEJ86/dRHE7XTHinIRFeAkbbkvJ0JfC4n6x9eQN2pY0BM0T377LMphU2PlVskGsUvhVLWGfVa1Kp2J/q0zkO1J3nTAdAUCPHqGWcSeYhp8iuteopFXcbjOn/0K9b95PtIvthMC4LAihUrmD9/fkr7tMS9folWn5+AFCISjeLzZRag4hBFPZ/VOQnaB6S1OeIKsKo286WQtq+qL7G8/gxRfyyqd0caOrl6i8uLx+vH7emZpEyFffv2s/63b/K9Fen33yNtBugj8YKtfyK6cS3xrY7KaObxF15i/p3zuvxOAzH3PXu+scezmg5VVUd4dPFDyELvc3IqDFIJjNTH3D/qdVH/h1dwVLQfdWlMZi598teUzZzWbVsaALenNeukW1t93RuDEvz2OgN84k4dDyBRyp4/+hXvLlmMq6FOqR902XDueHEVuYNLsLdp/K6gAbBaTDjdvj6TP19bk0DaJJpprq0hd3BJ2m/iAaxY1HGpUcua+uS8r0hZNfzjjVVs//0bSp2AwKibvs3sxY9jssZS1mUWfbdj1QCEQmGGlgzC4/HT4vb2ao17vC6WPPGYQloUzfxy5WoaBhZl3MaYAUZKHX6qQ+GE8rFmPU3HK/no+aeVVAWgM5uZtfAxrv7ObUqZsYvtaUdoAC40tACQZ7cypCi2nYxH9WA4QigUJiAFiYTTZ77fvbWG06dOALGo+uLyXzFhwnh2+6I0Z3bIAsBku4HqRm97gc9D7Z9fY+2WDxLsOrp2R1xiyiwFKlHd55Pw+RpRawREowGDXotJNJKjUaPVJuqcgBQk3CH/fl6xi4/+8p7yvmTJEmbPnkkoGOLyiERFaw+YxyHLFFR8DBvXUOfvEC8EgW/e/QNu/OGipE+EKIzLFTNqPkm5RcIybk9bSmtqTzVqjYBBn/rXXP7ycuX52ollTJk2h9Nn2ndk+ogGSafNaEAXAiHEqi+xvb2csKNBKRcQGDJ6LHOfej5tzCgQtV2exHSEBkhQW+kQCcv4wsnBr7r6aw4d3A+AySTy8OJHkmyuFELslTUJh4KdIcsyB76o4PCbryMeO0zHVW4bVMgN9z2YsJY7Qy3AzcX2tPWdoQEoHJjTK3UGsHPHp8rzt2bMYnBhcZKNQSVwSTjAWa0xsUKWkYF9m95n58Y/4jh9PHFwJjOT593JpDvuVSJ2KghRmDbY2qNxawCaWtwUF+QCMfXm9vkJ+FPr8c44eGCf8lw2ZWpKG6vFyESzEZU3zEtHmhBkmWDDeRx/fxfnzi2E/Z1yviBgnDCNktsf4MYJI7vsXwrLjM8zZZTCOkIDEJBCVJ2oxW4XsYkmcgdYUatUeP0SgYBENBJVNHsckWiUgD+UsExCAT92u4iuLSAaDTr0Oi0BKYi3NYB08N8M3rmbHVs2I507lTyaNsKOW+6nIb+AM8B3w3LaUxkhCnOKbUmkZaA7zZgQ3JxOH05n7Nc3GLUY9Dp0GjVGvR6TaESjSg5w48ZepazxF55/BpermdLhI4jIMk2NzVR+fYTj1dWcOFFNU2MDqaAymdFMnYtr8mwa8hOvmTacdaU8h9MjMHOIjQJjctBctOkkd43J59oSS1rigizL8qma+l6rttoL53jw/rvx+bzdG8c7bQtyo8tuwHH5BL6cMKPbb6YaY7N6hVXHLSU2bhqces3LgOrRz3mlfCiLrytMPwZZluWmFjd19d2fgqbDvn17eHnZUpoaG0i3vRcEAZNJZPRVY5l78xxuLb9VORWpdgf4sMbFEbef9Y3JGv/efJFJA0SmFlooTXG5AO1XlYs2nWTjxtM0iGo+f3IcE0ssKd1ekGVZjgsSh8Pdpy3p9u3bOH4sdqfl83oQzTFXKywopPTyKxg//moG5doIBEJYLMaumuoxfrzpJK/tbWLgyUTPG3tjAYuuK2R2aeKZu+LqEJOsJlFPq0/CL0n4/JISxHoKUdSjVqkUBWg26mlxeWlsdKHVaxhaMqj3LFPgXzUe3jnQyKrNNQz0RQBwXWbmrfKhzCrNIdeYqNWS1nhnyarvIFlDoTBSOJK284628SOq+CmOzx9QtL4o6rNOPI6Pq1tY8Nx+TKPsnPrpuLR2GUtWnUaNVp9ortVqCHXaSfXWQ7KF2aU5mEbZeW5G+q0w9OCUNRiOEEya7d5lgkwkcl/w3IwSZpUm36N1hBLcztY0piCWfVgtRooKc/udfHcQZFmWW1xerBYTrT4Jl68Vj7e1y713T6HTqLFYjeTlWJHCEVp9fgbmZb6h6A9oAJxuH3WNLditInk5FooLcglIQfyBYNshREyuhqRwl15hMMbO1ePR3KjXYzBoUalVuD2tnKtrxueTEMWe6er+gLLGI2GZZoeXZoc3IbLH5Wrny4J0iEf+QEDC6/dT73Be1GCXDimDW0JkT4P4rF3sKN5baAAMem2PtXpfTmTt1syOh/oTyhVSXFX1Z2S3WowMGGDFbLz4azzp7iy+d25tlQj4g336IURRj0Ef295aLaaLnsI6IqPbUm/bPxrkcBS/lNrFVWoVBkNsJjMNhBcT/fIHv/8H/G9PSz/iP8v32NnSci23AAAAAElFTkSuQmCC;" vertex="1" parent="1">
                    <mxGeometry x="670" y="156" width="62" height="51" as="geometry"/>
                </mxCell>
                <mxCell id="13" value="" style="edgeStyle=elbowEdgeStyle;elbow=vertical;endArrow=classic;html=1;strokeColor=#E07A5F;fillColor=#F2CC8F;fontColor=#393C56;" edge="1" parent="1">
                    <mxGeometry width="50" height="50" relative="1" as="geometry">
                        <mxPoint x="560" y="220" as="sourcePoint"/>
                        <mxPoint x="610" y="300" as="targetPoint"/>
                    </mxGeometry>
                </mxCell>
                <mxCell id="14" value="" style="edgeStyle=elbowEdgeStyle;elbow=vertical;endArrow=classic;html=1;strokeColor=#E07A5F;fillColor=#F2CC8F;fontColor=#393C56;" edge="1" parent="1">
                    <mxGeometry width="50" height="50" relative="1" as="geometry">
                        <mxPoint x="690" y="210" as="sourcePoint"/>
                        <mxPoint x="630" y="300" as="targetPoint"/>
                        <Array as="points">
                            <mxPoint x="660" y="260"/>
                        </Array>
                    </mxGeometry>
                </mxCell>
                <mxCell id="15" value="" style="shape=image;verticalLabelPosition=bottom;labelBackgroundColor=#ffffff;verticalAlign=top;aspect=fixed;imageAspect=0;image=data:image/png,iVBORw0KGgoAAAANSUhEUgAAAC0AAAAsCAYAAADxRjE/AAAABHNCSVQICAgIfAhkiAAAABl0RVh0U29mdHdhcmUAZ25vbWUtc2NyZWVuc2hvdO8Dvz4AAAfYSURBVFiFvZlfTFvXHce/ByHApqxsOJgHrm2m1bgRxA0rZDWEqJgsazGNRCNACiokqRopaaVogmh72EzysIeQ7mFKs3VaUjIRDVopE4FEGQlI5U9STOpAQoUxEhCbSpjZBQYz5oWzh4uvfe69NrZB+z7de/5+7jm/3zm/cy5oAtra2qKNjY00JSWF2u32mOr09/fTlJQUeuHChUS6ZIREKy4vL1Or1Rpz+a2tLWq1Wuny8nKiXQoilFKKXYhSikmHG3PfL8L/3wAAYN7tgY5TC2UK8nXQcmq8kp4KspvOtpUQ9Jo/gFH7NJ6OO2GfmIm5HperxpHSQrz9lhEZ6anxdisoLug1fwC9fTY8GBjDxsZmwp0CQJmpEPXVh5Gtyoy7bkzQlAI2+xSu37ofHVZu7qO0rlCk4h1zMeqOl8dlNjtCr/kDuNn1ECOPX8hCanLV2K/XoEDPQafJYUZufWMT8y89mJyex9j4DNzfe2Q/gstVo7W5IWaTiQq95g+gte023AsethIhKDMVwmIuRl6Yw+2kJe8KBkae40H/GPyiGVMoUtHa0hBTexGhIwEb8rU4VVcZtXGmRSK1mvWNTVy7cVfixLGCy0LLARNCUGMpRd175ZKywZWk+KAeFSYj6j76Q+gj9RpoOTUqSg9Ax6mZD+gfmcDfux4xfqJQpKLt92eiOqgEmlLgT+09jA0TQvBR47swlxoZWLGtHzMX43T9UTRfuiGZoeAH1FaXo8CgEdLm3B60tnUw4FyuGp9az0SEThIn2OxTrNMRMMCUAqPfTuHj33wmcc6Xbh40XSnvUA6nC5f/2AGb3SGk5XFqtLY0QKEI1XEveNDZPRgbNKUU7V8NMAV+ZS5hRrizexCf/uWfEZc+AkClejVihwa9FiVFBtjsDqxvt5HHqXG+qYopd+feMJa8KztDd3YPwedbFd41XA5O11UK73NuDx4MjEUEmp5xAwCyfyIPrVJl4uL5E5h1LeLqn+/AeqVDAC8pMuCYuThUmAKdPUPRoSmlGPyGNYum2hDwkncFulx+KrOypFCEEBQZXwPAxxo1ljKUmQqh3DYVpTINLefeB6UUl67eBsCbwbUbd4U2aqvLGTMZfvJCdrSTgw82+zQzyga9VnCYNX8A1qu3oVSkobW5AVesH6Lt2ldwOF0AAQ6bDqDOUiZ4fIFBwzhb/8gEMhSp0OVmo/nyTca07BMzsNkdKCkyICOd3yHv9A5vjyTQ82gMZ+qPyo/06POwNZMAtZbDwmtvnw0+3yrcCx58/Ntr8HpXcKm5AcfMxTjbWIVPmixRlyhzqRElRQZ03R2SXVW++LJfeK6qPMTkPR13SsonAbxpfPsslKnKyhRGSmw2GxubaG3rwMDjCZypP8o46U6qqjzETH9QPt+qsKJkpKcKZgYAvh9WJSaSBABL3lVmyl7Xc8LznNvDmE0Q/OsnkzHDBpWRnooPwhxbEAFGw3bH4oP6UB4FXky/ZIon89D/YRL360P2aHsmnR6x+YhFKWS3bwCoKDXi395VSfq+sGXyp5ocJk9cPhkAvnPOM4nqrB8Lz/NuqQ2qsl5lHC1cf/vHQww9eQ4tp8YRUyH2hbUV1P58nSQtCfys5nFq6HLZ2EPMkAyxCJCt+hEAPooUR2NBaDlRCvRtr+MOp4tfXeLU2aYqVJgOMGliBik0IF0JCKBUpEGTmw0QoPgNvVy1PdFfb91HQb42ahlZ6CXvCrJVmSAALrc0MHm7OgXvoGBglp3FDprYN6TQlHfM4GjPuT0YtU8D4G0rOFXij+E7BWosZRj8ZhKv52tw6MDPoFQqY4ZOT09FHqeGOFpWigKwZIDfdoVdCIDHt4wC8I42ap9m8oKadLhknbH+eDnqj5dL0uPRnHuJedeKHDMJAPZtO15Q34U50KGifNmGv+yJHDruVrOuReZ9nyhqTAKA7KxMZqeamg5B63LVsgGSw+nC3Ue2PYUFeJ9htm4CFIocMwngbfHnYbuQz7eKSQcPTghworpMtoPBx/Hvijtp3R9gzo6qrEzJaiYETL8I2+8BdvorTEbJaCuVaTh/ig3c90K9fezsvfnGa5IyAnTxQQMD5nC6mNG+eP6EkEcIwbnGd+O6PohFa/4Ac8gghMASfjAQQxMCHHmrkMn8ouuh8JzHqXG2qUo4lZcUGfYUmFKgq3uICdzKTIWyIS9z3Kp7r5wZbfeCBzc6Q+DmUiN+9+uTkmuEvZDNPiWEAAA/ynUWeV9ioAkBTtWamQL/6h9D/8iE8B4pUNqNZl2LuH7rPpNWYymNeLCQXCGUFBlQZmLN5PP2ewz4XmrWtYhLV28zZqHhcqLOpgQaAE7X/xKcaBf6vP0eOrsH9yz2oJTi0fC4BFipTMPFczVR60a8y1vf2IT1Sof0Lk+vwan6o7taOdb8AXx2s0dyl6dUpsHafDKxu7ydwAHes6srSyT3c5FEKbDkXcbAyAvZS/lYgXeEDoLf7OzDsNz9NPh7t/35GhTqOWg1OWFhJd2+n17CpHMeT8dnZD8e4G24teUkXpE59CYEHZTN7sD19nuyJ5lEpVSm4R3zm3EvoXH9c1nf2ERv36jspXhcnW5fyodf8MRVP5G/W+sbmxi1OzD2zAn785mYjjOEEP7vlqkAb5caYzYF2bZ2+x8R4A8Eswuh/4hiFeTroNOqdwUarj2B/n/rf27lmRcWrGioAAAAAElFTkSuQmCC;" vertex="1" parent="1">
                    <mxGeometry x="600" y="310" width="45" height="44" as="geometry"/>
                </mxCell>
                <mxCell id="16" value="" style="endArrow=classic;html=1;strokeColor=#E07A5F;fillColor=#F2CC8F;fontColor=#393C56;" edge="1" parent="1">
                    <mxGeometry width="50" height="50" relative="1" as="geometry">
                        <mxPoint x="600" y="331.5" as="sourcePoint"/>
                        <mxPoint x="300" y="330" as="targetPoint"/>
                    </mxGeometry>
                </mxCell>
                <mxCell id="17" value="" style="shape=image;verticalLabelPosition=bottom;labelBackgroundColor=#ffffff;verticalAlign=top;aspect=fixed;imageAspect=0;image=data:image/png,iVBORw0KGgoAAAANSUhEUgAAAC4AAAAwCAYAAABuZUjcAAAABHNCSVQICAgIfAhkiAAAABl0RVh0U29mdHdhcmUAZ25vbWUtc2NyZWVuc2hvdO8Dvz4AAAZjSURBVGiB7Zl7TJVlHMc/7+FwUeRWXpiiy2tcdC1A0YwFiFKpiai15VBrq1ZaLf9BypVmkizaLGwunTNoYblUzEsTQW2rAFHS5JIQbHoOKOIFOIAgl7c/Xo7nHN/LeQ8e/Kvv9uyc8/xu3/e33/M8v/c5iEOCflHMzxHFFQmi+GfBkEQQRFEUcTey0mHfAdvvzG2QmOLWEAa3egMoPORIGiBtA1SUuDWMezPeYYGUBLjZKpdNHg/7i9wWyo0ZF+FQjjJpgDoTHM6FuioQRUnfaieK8HeJNHTi4TMuinCpFAoOw8lCdeL2mDweZs2CuQlw4jAcKbDJMjMhcalTFxrERSkp9dXQ0eYomhEjfV4qhdydcLrYOVm9iJ8DWTlO1YyKsx0W2JmhncH4Oe4lbMWlKl1qyhmvKIXVqe6mpB/na5yqKGf8oSFIy/7pCJgWCsFjpel/L0O7BSqq4FYr9CtU6cgAuGGC0eO1Iyhm/IYZXkhwna9BgIUL4Pkl0jrw9VPXvWGGgnw4mg+1Jmy7DBAZAV/lwHB/F4kDRE1zjfTiJHgnDUaHuGYH0qGV9Tk0t9jmnCxS9X08fo7OqAJ8vBE2ZQ+ONEjb34EiiJpumztdLD2QCtSJx84DD5yPzG2wZNXgCNvD1w92HYSVy22+9+wYBPH5yRAcCD6C+li5TNdh4RLWZ8DM6ZL/BjOcUc669sm5Pxt2f6Ms8/eD74s0FxCI0iKsPgtNjY6iMWMhKhFG+AOCo6yzDdYtBVMDRITBdjl5beKdbfByjLLstbWwbJ06585WyNkGx/LVdQAWJkPqBhgR4Dh/rhA2vSt9318qS5B2k1VeqF4mL2rUtakKtqyBosPapeYjSDrrFkB5gaOP6ERInCfpmKplIbSJ15SBlyAfcfEwTKVEbptgy+twpcbOxgA+duNBf/faIesD+DHD0VfqBkleUyYLo31ymi+DtyCfn5mobrN3I/S0D9gJkLAY4lMhJEyS3zLDqVw4cwQ6LY62J/JgYijEDLwtPR4CUdHQ0iALo5FxEa7WgocgHyGhyiYVJ6G63Kb39mZIzbCRtpJZ8SFknYBn4uW+d38CDXaNVuwSuN0oC6VMvK4ENidJWVMa48IUzag4ZdN55U2YpfGeOcwf3siGxEVy//s22vSmxkBkvA7i5Qdgx1vQ0qRc314KpWPFtYG6DhwBsavV9eyRnC7p2/tvqIP6UkkeNA5i1zghfvEg/PSZtJi0hhqu10vyiEjw0drf7eDjD88ukse4qL2N2li0muHol+pZ1pNxq1yrK1RCVLI8xvVaVXWLxWJH/JeN0HNXX39iKlX2OGGSJL/yl2vER4fLYzTVq6r7+fkNEG+uAlOF8xKxjmb5gQDA3FcleftNMLt4j+JKSWItFUsDeAr6x/n9yt7CU2DUGEknPw0sJn2kb1bJY/j76iA+aT4kbwBPD/A0OB8dt+DKSWWPy74AvxHQ2wU/pMK5bOgwQXcr1P6sbHetTB6jt0vSV4Fjk3W9FI6lQ/dd51kKfAxxeR6CV4BcdqcK/siCqwolFfUSxKQ7zuUthJbbynFStkOwvNGTdYdibxtCZa60HXV3apMPj4O5W5G1pfYPcOcfsAycfBMSICjcUefiDjibpx5jcjQkfO2cuMMDmE5CUznUl0B3l7LjsOdgtgZ5LbRUwvH31H1buaT+imB0PBf0XcHVfQfFe9Tl02IRI9MQjAplo4a2Kij+FJrlDZQDvHxg0V4Y7vg+q//usOR9uHpBXe4XCDNWQXAiGBXeaoD7VxDmg1D2LfR0K/sSBwhPiYPQteApP4X1E+9rg6JV0N6ireftDSHREDAVAp6EoNlgqYYuMzT+Bk2V2j7CkyA0XV3uMnEAcw5ccH4hOWhMnAMRW3WpunYFZ6mReuahQGAwhKbpVneN+L0bTo/iQWHkRJieBR46O0pcJW4EjG7OuKcXPLXLZTPXiBsEMLo540FjB2XmEvH+oEkY2s0PzArg40v/lPUYvMPpu1uK2HkZY0c9Yp908gqW69BzT9Fn35i5eAw1cfyjwPi79D0wBHH4E4j+cRiGzb7f2Hv4zgff+TDKtpP391RiqP4I+nplLoWAeYOg7e6/CzXQ21uJoXEHhrYGrAdR37gkPII0bsM08MiIW9HbXYLYfhw8fPEM1L/9PYhHTtxdGIJN+dHgf+KPGv8BTOnKeM9I3+oAAAAASUVORK5CYII=;" vertex="1" parent="1">
                    <mxGeometry x="250" y="300" width="46" height="48" as="geometry"/>
                </mxCell>
                <mxCell id="23" value="" style="endArrow=classic;html=1;strokeColor=#E07A5F;fillColor=#F2CC8F;fontColor=#393C56;" edge="1" parent="1">
                    <mxGeometry width="50" height="50" relative="1" as="geometry">
                        <mxPoint x="480" y="204.5" as="sourcePoint"/>
                        <mxPoint x="530" y="204.5" as="targetPoint"/>
                    </mxGeometry>
                </mxCell>
                <mxCell id="24" value="" style="edgeStyle=segmentEdgeStyle;endArrow=classic;html=1;strokeColor=#E07A5F;fillColor=#F2CC8F;fontColor=#393C56;exitX=0.5;exitY=1;exitDx=0;exitDy=0;entryX=0;entryY=0.5;entryDx=0;entryDy=0;" edge="1" parent="1" source="3" target="17">
                    <mxGeometry width="50" height="50" relative="1" as="geometry">
                        <mxPoint x="90" y="240" as="sourcePoint"/>
                        <mxPoint x="250" y="320" as="targetPoint"/>
                        <Array as="points">
                            <mxPoint x="90" y="330"/>
                            <mxPoint x="240" y="330"/>
                            <mxPoint x="240" y="324"/>
                        </Array>
                    </mxGeometry>
                </mxCell>
                <mxCell id="26" value="Text" style="text;html=1;strokeColor=none;fillColor=none;align=center;verticalAlign=middle;whiteSpace=wrap;rounded=0;sketch=0;fontColor=#393C56;" vertex="1" parent="1">
                    <mxGeometry x="120" y="50" width="40" height="20" as="geometry"/>
                </mxCell>
                <mxCell id="27" value="8" style="text;html=1;strokeColor=none;fillColor=none;align=center;verticalAlign=middle;whiteSpace=wrap;rounded=0;sketch=0;fontColor=#393C56;" vertex="1" parent="1">
                    <mxGeometry x="100" y="334" width="40" height="20" as="geometry"/>
                </mxCell>
                <mxCell id="28" value="7" style="text;html=1;strokeColor=none;fillColor=none;align=center;verticalAlign=middle;whiteSpace=wrap;rounded=0;sketch=0;fontColor=#393C56;" vertex="1" parent="1">
                    <mxGeometry x="414.55" y="334" width="40" height="20" as="geometry"/>
                </mxCell>
                <mxCell id="29" value="6" style="text;html=1;strokeColor=none;fillColor=none;align=center;verticalAlign=middle;whiteSpace=wrap;rounded=0;sketch=0;fontColor=#393C56;" vertex="1" parent="1">
                    <mxGeometry x="479.09" y="207" width="40" height="20" as="geometry"/>
                </mxCell>
                <mxCell id="30" value="5" style="text;html=1;strokeColor=none;fillColor=none;align=center;verticalAlign=middle;whiteSpace=wrap;rounded=0;sketch=0;fontColor=#393C56;" vertex="1" parent="1">
                    <mxGeometry x="400" y="120" width="40" height="20" as="geometry"/>
                </mxCell>
                <mxCell id="31" value="4" style="text;html=1;strokeColor=none;fillColor=none;align=center;verticalAlign=middle;whiteSpace=wrap;rounded=0;sketch=0;fontColor=#393C56;" vertex="1" parent="1">
                    <mxGeometry x="490" y="150" width="40" height="20" as="geometry"/>
                </mxCell>
                <mxCell id="32" value="3" style="text;html=1;strokeColor=none;fillColor=none;align=center;verticalAlign=middle;whiteSpace=wrap;rounded=0;sketch=0;fontColor=#393C56;" vertex="1" parent="1">
                    <mxGeometry x="335" y="190" width="40" height="30" as="geometry"/>
                </mxCell>
                <mxCell id="33" value="2" style="text;html=1;strokeColor=none;fillColor=none;align=center;verticalAlign=middle;whiteSpace=wrap;rounded=0;sketch=0;fontColor=#393C56;" vertex="1" parent="1">
                    <mxGeometry x="230" y="190" width="40" height="20" as="geometry"/>
                </mxCell>
                <mxCell id="34" value="1" style="text;html=1;strokeColor=none;fillColor=none;align=center;verticalAlign=middle;whiteSpace=wrap;rounded=0;sketch=0;fontColor=#393C56;" vertex="1" parent="1">
                    <mxGeometry x="120" y="187" width="40" height="20" as="geometry"/>
                </mxCell>
                <mxCell id="36" value="" style="endArrow=classic;startArrow=classic;html=1;strokeColor=#E07A5F;fillColor=#F2CC8F;fontColor=#393C56;" edge="1" parent="1">
                    <mxGeometry width="50" height="50" relative="1" as="geometry">
                        <mxPoint x="590" y="187" as="sourcePoint"/>
                        <mxPoint x="670" y="187" as="targetPoint"/>
                    </mxGeometry>
                </mxCell>
                <mxCell id="37" value="" style="endArrow=classic;html=1;strokeColor=#E07A5F;fillColor=#F2CC8F;fontColor=#393C56;" edge="1" parent="1">
                    <mxGeometry width="50" height="50" relative="1" as="geometry">
                        <mxPoint x="530" y="170" as="sourcePoint"/>
                        <mxPoint x="480" y="170" as="targetPoint"/>
                    </mxGeometry>
                </mxCell>
                <mxCell id="38" value="" style="endArrow=classic;html=1;strokeColor=#E07A5F;fillColor=#F2CC8F;fontColor=#393C56;" edge="1" parent="1">
                    <mxGeometry relative="1" as="geometry">
                        <mxPoint x="434" y="150" as="sourcePoint"/>
                        <mxPoint x="434.05" y="80" as="targetPoint"/>
                    </mxGeometry>
                </mxCell>
                <mxCell id="39" value="" style="shape=message;html=1;outlineConnect=0;" vertex="1" parent="38">
                    <mxGeometry width="20" height="14" relative="1" as="geometry">
                        <mxPoint x="-10" y="-7" as="offset"/>
                    </mxGeometry>
                </mxCell>
                <mxCell id="41" value="Text" style="text;html=1;strokeColor=none;fillColor=none;align=center;verticalAlign=middle;whiteSpace=wrap;rounded=0;sketch=0;fontColor=#393C56;" vertex="1" parent="1">
                    <mxGeometry x="130" y="60" width="40" height="20" as="geometry"/>
                </mxCell>
                <mxCell id="42" value="Text" style="text;html=1;strokeColor=none;fillColor=none;align=center;verticalAlign=middle;whiteSpace=wrap;rounded=0;sketch=0;fontColor=#393C56;" vertex="1" parent="1">
                    <mxGeometry x="140" y="70" width="40" height="20" as="geometry"/>
                </mxCell>
                <mxCell id="43" value="Text" style="text;html=1;strokeColor=none;fillColor=none;align=center;verticalAlign=middle;whiteSpace=wrap;rounded=0;sketch=0;fontColor=#393C56;" vertex="1" parent="1">
                    <mxGeometry x="150" y="80" width="40" height="20" as="geometry"/>
                </mxCell>
                <mxCell id="44" value="Text" style="text;html=1;strokeColor=none;fillColor=none;align=center;verticalAlign=middle;whiteSpace=wrap;rounded=0;sketch=0;fontColor=#393C56;" vertex="1" parent="1">
                    <mxGeometry x="160" y="90" width="40" height="20" as="geometry"/>
                </mxCell>
                <mxCell id="45" value="Github" style="text;html=1;strokeColor=none;fillColor=none;align=center;verticalAlign=middle;whiteSpace=wrap;rounded=0;sketch=0;fontColor=#393C56;" vertex="1" parent="1">
                    <mxGeometry x="290" y="145" width="40" height="20" as="geometry"/>
                </mxCell>
                <mxCell id="46" value="Vs-Code" style="text;html=1;strokeColor=none;fillColor=none;align=center;verticalAlign=middle;whiteSpace=wrap;rounded=0;sketch=0;fontColor=#393C56;" vertex="1" parent="1">
                    <mxGeometry x="175" y="150" width="55" height="10" as="geometry"/>
                </mxCell>
                <mxCell id="47" value="Developpeur" style="text;html=1;strokeColor=none;fillColor=none;align=center;verticalAlign=middle;whiteSpace=wrap;rounded=0;sketch=0;fontColor=#393C56;" vertex="1" parent="1">
                    <mxGeometry x="70" y="136" width="40" height="20" as="geometry"/>
                </mxCell>
            </root>
        </mxGraphModel>
    </diagram>
</mxfile>